<svg width="400" height="300" viewBox="0 0 400 300" xmlns="http://www.w3.org/2000/svg">
  <g stroke="#ec3750" stroke-width="1" opacity="0.3">
    <line x1="80" y1="75" x2="200" y2="50"/>
    <line x1="80" y1="75" x2="200" y2="150"/>
    <line x1="80" y1="75" x2="200" y2="250"/>
    <line x1="80" y1="150" x2="200" y2="50"/>
    <line x1="80" y1="150" x2="200" y2="150"/>
    <line x1="80" y1="150" x2="200" y2="250"/>
    <line x1="80" y1="225" x2="200" y2="50"/>
    <line x1="80" y1="225" x2="200" y2="150"/>
    <line x1="80" y1="225" x2="200" y2="250"/>
    <line x1="200" y1="50" x2="320" y2="150"/>
    <line x1="200" y1="150" x2="320" y2="150"/>
    <line x1="200" y1="250" x2="320" y2="150"/>
  </g>
  <g fill="#ec3750">
    <circle cx="80" cy="75" r="12"/>
    <circle cx="80" cy="150" r="12"/>
    <circle cx="80" cy="225" r="12"/>
    <circle cx="200" cy="50" r="12"/>
    <circle cx="200" cy="150" r="12"/>
    <circle cx="200" cy="250" r="12"/>
    <circle cx="320" cy="150" r="12"/>
  </g>
</svg>